<svg width="1024" height="1024" viewBox="0 0 1024 1024" fill="none" xmlns="http://www.w3.org/2000/svg">
<path d="M0 0C337.92 0 675.84 0 1024 0C1024 337.92 1024 675.84 1024 1024C686.08 1024 348.16 1024 0 1024C0 686.08 0 348.16 0 0ZM542 272C542 300.71 542 329.42 542 359C481.61 359 421.22 359 359 359C359 361.64 359 364.28 359 367C368.57 367 378.14 367 388 367C388 377.56 388 388.12 388 399C378.43 399 368.86 399 359 399C359 409.56 359 420.12 359 431C368.57 431 378.14 431 388 431C388 441.56 388 452.12 388 463C378.43 463 368.86 463 359 463C359 473.56 359 484.12 359 495C368.57 495 378.14 495 388 495C388 505.56 388 516.12 388 527C378.43 527 368.86 527 359 527C359 537.56 359 548.12 359 559C368.57 559 378.14 559 388 559C388 569.56 388 580.12 388 591C378.43 591 368.86 591 359 591C359 601.56 359 612.12 359 623C368.57 623 378.14 623 388 623C388 633.56 388 644.12 388 655C378.43 655 368.86 655 359 655C359 658.3 359 661.6 359 665C459.98 665 560.96 665 665 665C665 605.27 665 545.54 665 484C666.65 483.34 668.3 482.68 670 482C671.947 480.986 673.878 479.942 675.797 478.875C676.912 478.256 678.026 477.637 679.175 477C680.367 476.333 681.558 475.667 682.75 475C683.981 474.314 685.212 473.628 686.442 472.942C693.591 468.95 700.692 464.885 707.728 460.698C713.418 457.319 719.17 454.058 724.938 450.812C741.87 441.276 758.703 431.567 775.438 421.688C776.361 421.142 777.285 420.597 778.237 420.035C781.539 418.079 784.806 416.129 788 414C788 413.34 788 412.68 788 412C786.598 411.217 786.598 411.217 785.168 410.418C775.306 404.896 765.513 399.262 755.737 393.588C742.321 385.805 728.892 378.045 715.375 370.438C707.648 366.088 699.965 361.669 692.312 357.188C680.115 350.045 667.845 343.031 655.564 336.032C650.289 333.025 645.017 330.011 639.745 326.997C637.999 326 636.254 325.002 634.508 324.005C629.228 320.989 623.949 317.972 618.673 314.949C615.72 313.257 612.766 311.566 609.812 309.875C609.231 309.542 608.65 309.21 608.052 308.867C598.801 303.575 589.508 298.359 580.196 293.174C571.624 288.386 563.144 283.45 554.7 278.441C553.763 277.888 552.825 277.335 551.859 276.766C551.039 276.279 550.219 275.792 549.374 275.29C546.629 273.739 546.629 273.739 542 272Z" fill="black"/>
<path d="M359 359C419.39 359 479.78 359 542 359C542 423.35 542 487.7 542 554C556.402 545.935 570.79 537.868 585.108 529.657C590.13 526.78 595.156 523.91 600.182 521.039C601.998 520.001 603.815 518.963 605.632 517.925C610.933 514.895 616.235 511.865 621.539 508.84C622.816 508.111 622.816 508.111 624.118 507.368C625.774 506.423 627.43 505.478 629.087 504.534C634.073 501.688 639.043 498.815 644.004 495.926C645.806 494.878 647.609 493.831 649.412 492.784C650.589 492.098 651.765 491.411 652.941 490.723C654.577 489.765 656.216 488.812 657.855 487.859C658.801 487.307 659.746 486.755 660.719 486.187C663 485 663 485 665 485C665 544.4 665 603.8 665 665C564.02 665 463.04 665 359 665C359 661.7 359 658.4 359 655C368.57 655 378.14 655 388 655C388 644.44 388 633.88 388 623C378.43 623 368.86 623 359 623C359 612.44 359 601.88 359 591C368.57 591 378.14 591 388 591C388 580.44 388 569.88 388 559C378.43 559 368.86 559 359 559C359 548.44 359 537.88 359 527C368.57 527 378.14 527 388 527C388 516.44 388 505.88 388 495C378.43 495 368.86 495 359 495C359 484.44 359 473.88 359 463C368.57 463 378.14 463 388 463C388 452.44 388 441.88 388 431C378.43 431 368.86 431 359 431C359 420.44 359 409.88 359 399C368.57 399 378.14 399 388 399C388 388.44 388 377.88 388 367C378.43 367 368.86 367 359 367C359 364.36 359 361.72 359 359Z" fill="#FE3131"/>
<path d="M542 272C545.883 273.553 549.146 275.13 552.734 277.203C553.853 277.847 554.972 278.49 556.124 279.153C556.714 279.494 557.305 279.836 557.913 280.188C561.063 282.009 564.219 283.821 567.375 285.633C568.017 286.002 568.659 286.371 569.321 286.751C575.436 290.26 581.59 293.697 587.75 297.125C596.943 302.249 606.052 307.501 615.131 312.825C622.74 317.282 630.398 321.643 638.081 325.969C645.673 330.246 653.248 334.551 660.812 338.875C661.399 339.21 661.986 339.546 662.591 339.891C672.31 345.447 682.009 351.036 691.702 356.636C699.127 360.924 706.566 365.186 714.014 369.434C722.3 374.163 730.562 378.934 738.824 383.706C745.394 387.499 751.972 391.275 758.562 395.031C763.834 398.05 769.089 401.098 774.344 404.146C778.887 406.78 783.437 409.4 788 412C788 412.66 788 413.32 788 414C786.07 415.418 786.07 415.418 783.125 417.188C782.563 417.526 782.002 417.864 781.423 418.212C779.289 419.488 777.146 420.745 775 422C774.088 422.534 773.175 423.067 772.235 423.617C759.153 431.245 745.985 438.711 732.758 446.085C726.363 449.657 720.021 453.303 713.722 457.041C707.02 461.01 700.263 464.885 693.5 468.75C692.6 469.265 692.6 469.265 691.681 469.789C682.204 475.201 672.687 480.537 663.154 485.851C655.051 490.381 647.032 495.047 639.025 499.746C630.789 504.568 622.477 509.245 614.142 513.893C599.536 522.04 585.048 530.39 570.562 538.75C568.905 539.706 568.905 539.706 567.213 540.682C562.574 543.357 557.936 546.035 553.309 548.73C552.039 549.466 550.77 550.202 549.5 550.938C548.458 551.545 547.417 552.152 546.344 552.777C544 554 544 554 542 554C542 460.94 542 367.88 542 272Z" fill="#FEFEFE"/>
</svg>
